<?xml version="1.0" encoding="utf-8"?>
<!-- Generator: Adobe Illustrator 12.0.0, SVG Export Plug-In . SVG Version: 6.00 Build 51448)  -->
<!DOCTYPE svg PUBLIC "-//W3C//DTD SVG 1.1//EN" "http://www.w3.org/Graphics/SVG/1.1/DTD/svg11.dtd" [
	<!ENTITY ns_svg "http://www.w3.org/2000/svg">
	<!ENTITY ns_xlink "http://www.w3.org/1999/xlink">
]>
<svg  version="1.1" id="Layer_1" xmlns="&ns_svg;" xmlns:xlink="&ns_xlink;" width="746.277" height="93.319"
	 viewBox="0 0 746.277 93.319" overflow="visible" enable-background="new 0 0 746.277 93.319" xml:space="preserve">
<g>
	<g>
		<path fill="#FFFFFF" d="M346.625,61.508c-0.35,2.336-1.341,3.949-2.972,4.842c-0.758,0.068-1.325,0.034-1.704-0.103
			c-0.379-0.138-0.772-0.31-1.18-0.516c-0.525-0.275-0.991-0.446-1.398-0.515l-0.962-0.824c-0.117-0.344-0.263-0.687-0.438-1.03
			s-0.379-0.687-0.611-1.03c-0.467-0.687-0.933-1.545-1.398-2.576c-0.35-1.991-0.408-3.656-0.175-4.996
			c0.232-1.34,0.524-2.662,0.874-3.967c0.116-0.412,0.232-0.841,0.35-1.288c0.116-0.446,0.232-0.876,0.35-1.288
			c-1.516-0.961-2.651-2.335-3.409-4.121c-0.757-1.785-1.193-3.503-1.311-5.151c0.176-1.305,0.496-2.352,0.962-3.142
			c0.467-0.79,1.005-1.426,1.616-1.906s1.253-0.858,1.923-1.134c0.67-0.274,1.326-0.515,1.967-0.721l1.137,0.515
			c0.523,0.619,1.048,1.1,1.573,1.442c0.407-0.205,0.684-0.531,0.83-0.979c0.146-0.446,0.276-0.944,0.394-1.494
			c0.174-0.617,0.363-1.235,0.567-1.854s0.452-1.236,0.743-1.855c-0.059-0.893,0.059-1.717,0.35-2.473
			c-0.408-0.343-0.845-0.549-1.311-0.618c-0.117,0-0.408-0.068-0.874-0.206c-0.699-0.617-1.181-1.149-1.442-1.597
			c-0.263-0.446-0.511-0.876-0.743-1.288c-0.35-0.893-0.787-1.613-1.311-2.163l-0.874-0.722l0.437-1.03
			c0.116-0.137,0.175-0.309,0.175-0.515s-0.117-0.516-0.35-0.928c-0.117-0.755-0.117-1.27,0-1.545l0.175-1.03
			c0.466-0.756,0.699-1.168,0.699-1.236l0.787-0.928c1.165-0.343,2.315-0.737,3.452-1.185c1.136-0.446,2.286-0.91,3.452-1.391
			c1.107-0.412,2.229-0.841,3.365-1.288c1.136-0.446,2.286-0.841,3.452-1.185c0.408-0.344,0.845-0.566,1.312-0.67
			c0.466-0.103,0.902-0.188,1.311-0.258c0.35-0.068,0.67-0.119,0.961-0.154c0.291-0.034,0.495-0.154,0.612-0.36
			c0.699-0.274,1.515-0.584,2.447-0.928c1.457-0.48,3.38-1.013,5.769-1.597s5.069-1.047,8.041-1.391l1.486-0.104
			c0.291,0.069,0.582,0.087,0.873,0.052c0.291-0.034,0.583-0.052,0.875-0.052c2.621,0,4.282,0.928,4.981,2.782
			c0.524,0.344,0.99,0.721,1.398,1.133s0.787,0.824,1.137,1.236c0.174,0.275,0.363,0.516,0.567,0.722s0.364,0.344,0.481,0.412
			c0.99,1.786,1.311,3.366,0.961,4.739c-0.524,0.893-1.194,1.408-2.01,1.545l-0.962,0.618c-0.641-0.068-1.122-0.103-1.442-0.103
			s-0.655,0-1.005,0c-1.457,0-3.146,0.104-5.069,0.31s-3.89,0.498-5.899,0.875c-2.011,0.378-3.948,0.842-5.813,1.391
			c-1.865,0.55-3.496,1.134-4.895,1.752l-1.573,0.927c-0.408,0.756-0.641,1.357-0.699,1.804s-0.116,0.875-0.175,1.287
			c-0.059,0.275-0.102,0.55-0.131,0.824c-0.029,0.275-0.073,0.584-0.131,0.928c-0.991,1.442-1.486,3.159-1.486,5.151
			c-0.408,0.824-0.67,1.426-0.786,1.803c-0.117,0.378-0.117,0.842,0,1.391c1.106,0.55,2.155,0.756,3.146,0.618
			c0.99-0.137,1.981-0.309,2.973-0.515c1.34-0.274,2.724-0.515,4.151-0.721s2.898-0.31,4.414-0.31h2.797l-0.699,0.824l0.437,1.442
			c0.35,0.206,0.597,0.344,0.743,0.412c0.146,0.068,0.306,0.172,0.48,0.309l0.438,0.928c0.232,0.138,0.451,0.378,0.655,0.722
			c0.203,0.344,0.335,0.858,0.394,1.545l-3.584,5.976l-1.224,0.412c-0.99-0.068-1.864,0.068-2.622,0.412
			c-0.408,0.138-0.815,0.258-1.224,0.36c-0.408,0.104-0.845,0.154-1.311,0.154c-1.166,0.275-2.142,0.481-2.929,0.618
			c-0.787,0.138-1.588,0.275-2.403,0.412c-1.049,0.138-2.069,0.327-3.06,0.567s-1.923,0.566-2.796,0.979c-0.583,0-0.991,0-1.224,0
			c-0.467,0-0.947,0.086-1.442,0.258c-0.496,0.172-0.947,0.326-1.354,0.463c-0.292,0.275-0.496,0.567-0.612,0.876
			c-0.117,0.31-0.233,0.636-0.35,0.979c-0.233,0.962-0.554,1.752-0.961,2.37v1.545c-0.467,0.688-0.743,1.22-0.831,1.598
			s-0.189,0.738-0.306,1.081c-0.117,0.207-0.204,0.396-0.263,0.567s-0.087,0.36-0.087,0.566
			C346.741,59.035,346.857,60.203,346.625,61.508z"/>
		<path fill="#FFFFFF" d="M426.071,34.103c-0.059,0.824-0.001,1.614,0.174,2.37s0.394,1.494,0.656,2.215
			c0.262,0.721,0.51,1.459,0.743,2.215c0.232,0.756,0.407,1.511,0.524,2.267c0.116,0.962,0.116,2.01,0,3.143
			c-0.117,1.133-0.321,2.232-0.612,3.297s-0.67,2.026-1.136,2.885c-0.467,0.858-1.021,1.493-1.661,1.905
			c-0.816,1.236-1.807,2.198-2.972,2.885c-1.166,0.688-2.243,1.512-3.233,2.473c-0.642,0.481-1.355,0.825-2.142,1.031
			c-0.787,0.206-1.588,0.412-2.403,0.617c-0.642,0.412-1.399,0.842-2.273,1.288c-0.874,0.447-1.777,0.859-2.709,1.236
			c-0.933,0.378-1.865,0.652-2.797,0.824c-0.933,0.172-1.748,0.224-2.447,0.154c-1.748,0.756-3.453,1.254-5.113,1.494
			s-3.598,0.085-5.812-0.464c-2.098,0.344-4.035,0.24-5.813-0.309c-1.777-0.55-3.351-1.425-4.72-2.627s-2.564-2.645-3.584-4.327
			s-1.85-3.451-2.49-5.307c-0.467-3.914-0.35-7.469,0.35-10.663c0.699-3.193,1.704-6.147,3.015-8.86s2.812-5.22,4.501-7.521
			s3.321-4.551,4.896-6.749c0.35,0.138,0.626,0.121,0.83-0.051c0.203-0.172,0.393-0.412,0.567-0.722
			c0.175-0.309,0.364-0.601,0.568-0.876c0.204-0.274,0.452-0.446,0.743-0.515c0.408-1.03,1.005-1.803,1.792-2.318
			c0.786-0.515,1.412-1.253,1.879-2.215c0.524-0.137,0.962-0.343,1.312-0.618c0.35-0.274,0.685-0.583,1.005-0.927
			s0.655-0.67,1.005-0.979c0.35-0.309,0.757-0.532,1.224-0.67V8.552c1.049-0.549,1.82-1.185,2.316-1.906
			c0.495-0.721,1.093-1.597,1.792-2.627c0.523-0.068,0.946-0.104,1.267-0.104s0.802-0.068,1.442-0.206
			c0.466-0.961,0.889-1.683,1.268-2.163S408.968,0.55,409.726,0c0.699,0.412,1.471,0.688,2.316,0.824
			c0.845,0.138,1.588,0.584,2.229,1.34c0.059,0.688,0.233,1.22,0.524,1.597c0.291,0.378,0.612,0.722,0.962,1.03
			c0.35,0.31,0.685,0.636,1.005,0.979s0.538,0.824,0.655,1.441c0.232,0.069,0.393,0.035,0.48-0.103
			c0.088-0.137,0.248-0.172,0.481-0.104c0.174,0.962,0.378,1.598,0.611,1.906c0.232,0.31,0.466,0.91,0.699,1.803
			c-0.291,0.688-0.51,1.392-0.655,2.112c-0.146,0.722-0.511,1.254-1.093,1.597c-0.059,0.481,0.059,0.739,0.35,0.773
			s0.466,0.223,0.524,0.566c0.059,0.618-0.029,1.064-0.262,1.339c1.398,2.68,2.65,5.513,3.758,8.5
			C423.419,28.591,424.672,31.424,426.071,34.103z M415.145,43.89c0.232-0.755,0.539-1.373,0.918-1.854s0.597-1.202,0.655-2.164
			c-0.291-0.549-0.466-0.979-0.524-1.288c-0.059-0.309-0.087-0.807-0.087-1.494c-1.282-2.129-2.39-4.412-3.321-6.851
			c-0.933-2.438-1.981-4.723-3.146-6.852c-0.117,0.275-0.321,0.55-0.612,0.824c-0.291,0.275-0.611,0.206-0.961-0.206
			c-0.117,0.55-0.321,0.944-0.612,1.185s-0.611,0.344-0.961,0.31s-0.714-0.138-1.093-0.31s-0.714-0.395-1.005-0.67
			c-1.69,1.58-3.381,3.126-5.07,4.637c-1.689,1.512-3.204,3.263-4.544,5.254c-0.233,0.138-0.379,0.189-0.438,0.155
			s-0.233,0.018-0.524,0.154c-0.467,1.305-1.034,2.49-1.704,3.555s-1.326,2.146-1.967,3.245c-0.641,1.1-1.194,2.267-1.66,3.503
			c-0.467,1.236-0.729,2.679-0.787,4.327c0.99,0.962,2.156,1.546,3.496,1.752s2.724,0.24,4.151,0.103
			c1.428-0.137,2.826-0.36,4.195-0.67c1.369-0.309,2.637-0.464,3.803-0.464c2.447-0.687,4.545-1.597,6.293-2.729
			S413.222,45.058,415.145,43.89z"/>
		<path fill="#FFFFFF" d="M445.469,54.296c-0.642,2.748-1.21,4.825-1.705,6.233s-1.238,2.867-2.229,4.378
			c-0.758-0.137-1.282-0.034-1.573,0.31c-0.291,0.343-0.611,0.651-0.961,0.927c-0.525,0.137-0.904,0.137-1.137,0
			c-0.233-0.138-0.438-0.292-0.612-0.463c-0.175-0.173-0.394-0.344-0.655-0.516s-0.655-0.258-1.18-0.258
			c-0.117-0.549-0.248-1.064-0.394-1.545s-0.539-0.652-1.18-0.516c0.116-0.549,0.146-1.013,0.087-1.391
			c-0.059-0.377-0.131-0.721-0.218-1.03c-0.088-0.309-0.16-0.618-0.219-0.927s-0.029-0.704,0.088-1.186
			c-0.292,0-0.525-0.24-0.7-0.721s-0.379-0.962-0.611-1.442c0.175-1.236,0.35-2.403,0.524-3.503
			c0.175-1.099,0.394-2.129,0.655-3.091c0.262-0.961,0.48-1.923,0.655-2.885c0.175-0.961,0.088-1.957-0.262-2.988
			c0.232,0.207,0.407,0.155,0.524-0.154c0.116-0.309,0.203-0.721,0.262-1.236c0.059-0.515,0.088-1.029,0.088-1.545
			s-0.029-0.944-0.087-1.288c0.582-1.785,1.063-3.623,1.441-5.512s0.729-3.761,1.049-5.615s0.656-3.675,1.006-5.461
			c0.35-1.785,0.815-3.434,1.398-4.945c0.641-0.137,1.354-0.051,2.141,0.258c0.787,0.31,1.268,0.704,1.442,1.185
			c1.515-1.373,2.854-3.039,4.021-4.996c1.165-1.957,2.359-3.863,3.583-5.718s2.578-3.503,4.064-4.945s3.365-2.301,5.638-2.576
			c1.165,1.03,2.462,2.078,3.89,3.143s2.607,2.455,3.54,4.172c0.466,0.275,0.859,0.567,1.18,0.876c0.32,0.31,0.713,0.636,1.18,0.979
			v1.236c0.699,0.756,1.267,1.632,1.704,2.628s0.831,2.061,1.181,3.193c0.35,1.134,0.699,2.268,1.049,3.4s0.757,2.215,1.224,3.245
			c-0.117,0.344-0.175,0.636-0.175,0.876s0.043,0.498,0.131,0.772c0.087,0.275,0.159,0.55,0.218,0.824
			c0.059,0.275,0.059,0.652,0.001,1.133c-0.176,3.022-1.006,5.461-2.491,7.315c-1.486,1.854-3.277,3.383-5.375,4.585
			s-4.342,2.215-6.73,3.039s-4.545,1.718-6.468,2.679c0,0.275,0.102,0.412,0.306,0.412s0.277,0.172,0.219,0.515
			c1.398,1.031,2.505,1.855,3.321,2.474c0.815,0.618,1.588,1.133,2.316,1.545s1.515,0.773,2.359,1.082s2.024,0.669,3.54,1.081
			c1.515,0.412,2.694,0.739,3.54,0.979c0.845,0.24,1.617,0.446,2.316,0.618s1.412,0.309,2.141,0.412s1.763,0.224,3.104,0.36
			c0.523,0.618,0.976,1.356,1.354,2.215c0.379,0.859,0.626,1.718,0.743,2.576c0.116,0.858,0.146,1.683,0.087,2.473
			s-0.262,1.425-0.611,1.905c0.058,0.207,0.188,0.293,0.393,0.258c0.204-0.034,0.423-0.017,0.656,0.052
			c-0.35,0.275-0.642,0.618-0.874,1.03c-0.233,0.412-0.467,0.824-0.699,1.236c-0.233,0.412-0.496,0.772-0.787,1.082
			c-0.291,0.308-0.699,0.497-1.224,0.566c-1.807,0.824-4.079,0.875-6.817,0.154c-2.738-0.722-6.205-2.044-10.4-3.967
			c-2.098-0.961-3.803-1.803-5.113-2.523c-1.312-0.721-2.448-1.442-3.409-2.164c-0.961-0.721-1.835-1.494-2.622-2.318
			S446.576,55.464,445.469,54.296z M457.967,18.957c-0.641,1.1-1.354,2.096-2.142,2.988s-1.544,1.803-2.272,2.73
			s-1.384,1.958-1.966,3.091c-0.583,1.133-0.991,2.455-1.224,3.966c2.039-0.274,4.165-0.944,6.38-2.009
			c2.214-1.064,4.312-2.077,6.293-3.039c-0.233-2.129-0.859-3.847-1.879-5.151S459.075,19.369,457.967,18.957z"/>
		<path fill="#FFFFFF" d="M525.173,61.508c-0.35,2.336-1.341,3.949-2.972,4.842c-0.758,0.068-1.325,0.034-1.704-0.103
			c-0.379-0.138-0.772-0.31-1.18-0.516c-0.525-0.275-0.991-0.446-1.398-0.515l-0.962-0.824c-0.117-0.344-0.263-0.687-0.438-1.03
			s-0.379-0.687-0.611-1.03c-0.467-0.687-0.933-1.545-1.398-2.576c-0.35-1.991-0.408-3.656-0.175-4.996
			c0.232-1.34,0.524-2.662,0.874-3.967c0.116-0.412,0.232-0.841,0.35-1.288c0.116-0.446,0.232-0.876,0.35-1.288
			c-1.516-0.961-2.651-2.335-3.409-4.121c-0.757-1.785-1.193-3.503-1.311-5.151c0.176-1.305,0.496-2.352,0.962-3.142
			c0.467-0.79,1.005-1.426,1.616-1.906s1.253-0.858,1.923-1.134c0.67-0.274,1.326-0.515,1.967-0.721l1.137,0.515
			c0.523,0.619,1.048,1.1,1.573,1.442c0.407-0.205,0.684-0.531,0.83-0.979c0.146-0.446,0.276-0.944,0.394-1.494
			c0.174-0.617,0.363-1.235,0.567-1.854s0.452-1.236,0.743-1.855c-0.059-0.893,0.059-1.717,0.35-2.473
			c-0.408-0.343-0.845-0.549-1.311-0.618c-0.117,0-0.408-0.068-0.874-0.206c-0.699-0.617-1.181-1.149-1.442-1.597
			c-0.263-0.446-0.511-0.876-0.743-1.288c-0.35-0.893-0.787-1.613-1.311-2.163l-0.874-0.722l0.437-1.03
			c0.116-0.137,0.175-0.309,0.175-0.515s-0.117-0.516-0.35-0.928c-0.117-0.755-0.117-1.27,0-1.545l0.175-1.03
			c0.466-0.756,0.699-1.168,0.699-1.236l0.787-0.928c1.165-0.343,2.315-0.737,3.452-1.185c1.136-0.446,2.286-0.91,3.452-1.391
			c1.107-0.412,2.229-0.841,3.365-1.288c1.136-0.446,2.286-0.841,3.452-1.185c0.408-0.344,0.845-0.566,1.312-0.67
			c0.466-0.103,0.902-0.188,1.311-0.258c0.35-0.068,0.67-0.119,0.961-0.154c0.291-0.034,0.495-0.154,0.612-0.36
			c0.699-0.274,1.515-0.584,2.447-0.928c1.457-0.48,3.38-1.013,5.769-1.597s5.069-1.047,8.041-1.391l1.486-0.104
			c0.291,0.069,0.582,0.087,0.873,0.052c0.291-0.034,0.583-0.052,0.875-0.052c2.621,0,4.282,0.928,4.981,2.782
			c0.524,0.344,0.99,0.721,1.398,1.133s0.787,0.824,1.137,1.236c0.174,0.275,0.363,0.516,0.567,0.722s0.364,0.344,0.481,0.412
			c0.99,1.786,1.311,3.366,0.961,4.739c-0.524,0.893-1.194,1.408-2.01,1.545l-0.962,0.618c-0.641-0.068-1.122-0.103-1.442-0.103
			s-0.655,0-1.005,0c-1.457,0-3.146,0.104-5.069,0.31s-3.89,0.498-5.899,0.875c-2.011,0.378-3.948,0.842-5.813,1.391
			c-1.865,0.55-3.496,1.134-4.895,1.752l-1.573,0.927c-0.408,0.756-0.641,1.357-0.699,1.804s-0.116,0.875-0.175,1.287
			c-0.059,0.275-0.102,0.55-0.131,0.824c-0.029,0.275-0.073,0.584-0.131,0.928c-0.991,1.442-1.486,3.159-1.486,5.151
			c-0.408,0.824-0.67,1.426-0.786,1.803c-0.117,0.378-0.117,0.842,0,1.391c1.106,0.55,2.155,0.756,3.146,0.618
			c0.99-0.137,1.981-0.309,2.973-0.515c1.34-0.274,2.724-0.515,4.151-0.721s2.898-0.31,4.414-0.31h2.797l-0.699,0.824l0.437,1.442
			c0.35,0.206,0.597,0.344,0.743,0.412c0.146,0.068,0.306,0.172,0.48,0.309l0.438,0.928c0.232,0.138,0.451,0.378,0.655,0.722
			c0.203,0.344,0.335,0.858,0.394,1.545l-3.584,5.976l-1.224,0.412c-0.99-0.068-1.864,0.068-2.622,0.412
			c-0.408,0.138-0.815,0.258-1.224,0.36c-0.408,0.104-0.845,0.154-1.311,0.154c-1.166,0.275-2.142,0.481-2.929,0.618
			c-0.787,0.138-1.588,0.275-2.403,0.412c-1.049,0.138-2.069,0.327-3.06,0.567s-1.923,0.566-2.796,0.979c-0.583,0-0.991,0-1.224,0
			c-0.467,0-0.947,0.086-1.442,0.258c-0.496,0.172-0.947,0.326-1.354,0.463c-0.292,0.275-0.496,0.567-0.612,0.876
			c-0.117,0.31-0.233,0.636-0.35,0.979c-0.233,0.962-0.554,1.752-0.961,2.37v1.545c-0.467,0.688-0.743,1.22-0.831,1.598
			s-0.189,0.738-0.306,1.081c-0.117,0.207-0.204,0.396-0.263,0.567s-0.087,0.36-0.087,0.566
			C525.29,59.035,525.406,60.203,525.173,61.508z"/>
		<path fill="#FFFFFF" d="M567.735,54.296c-0.642,2.748-1.21,4.825-1.705,6.233s-1.238,2.867-2.229,4.378
			c-0.758-0.137-1.282-0.034-1.573,0.31c-0.291,0.343-0.611,0.651-0.961,0.927c-0.525,0.137-0.904,0.137-1.137,0
			c-0.233-0.138-0.438-0.292-0.612-0.463c-0.175-0.173-0.394-0.344-0.655-0.516s-0.655-0.258-1.18-0.258
			c-0.117-0.549-0.248-1.064-0.394-1.545s-0.539-0.652-1.18-0.516c0.116-0.549,0.146-1.013,0.087-1.391
			c-0.059-0.377-0.131-0.721-0.218-1.03c-0.088-0.309-0.16-0.618-0.219-0.927s-0.029-0.704,0.088-1.186
			c-0.292,0-0.525-0.24-0.7-0.721s-0.379-0.962-0.611-1.442c0.175-1.236,0.35-2.403,0.524-3.503
			c0.175-1.099,0.394-2.129,0.655-3.091c0.262-0.961,0.48-1.923,0.655-2.885c0.175-0.961,0.088-1.957-0.262-2.988
			c0.232,0.207,0.407,0.155,0.524-0.154c0.116-0.309,0.203-0.721,0.262-1.236c0.059-0.515,0.088-1.029,0.088-1.545
			s-0.029-0.944-0.087-1.288c0.582-1.785,1.063-3.623,1.441-5.512s0.729-3.761,1.049-5.615s0.656-3.675,1.006-5.461
			c0.35-1.785,0.815-3.434,1.398-4.945c0.641-0.137,1.354-0.051,2.141,0.258c0.787,0.31,1.268,0.704,1.442,1.185
			c1.515-1.373,2.854-3.039,4.021-4.996c1.165-1.957,2.359-3.863,3.583-5.718s2.578-3.503,4.064-4.945s3.365-2.301,5.638-2.576
			c1.165,1.03,2.462,2.078,3.89,3.143s2.607,2.455,3.54,4.172c0.466,0.275,0.859,0.567,1.18,0.876c0.32,0.31,0.713,0.636,1.18,0.979
			v1.236c0.699,0.756,1.267,1.632,1.704,2.628s0.831,2.061,1.181,3.193c0.35,1.134,0.699,2.268,1.049,3.4s0.757,2.215,1.224,3.245
			c-0.117,0.344-0.175,0.636-0.175,0.876s0.043,0.498,0.131,0.772c0.087,0.275,0.159,0.55,0.218,0.824
			c0.059,0.275,0.059,0.652,0.001,1.133c-0.176,3.022-1.006,5.461-2.491,7.315c-1.486,1.854-3.277,3.383-5.375,4.585
			s-4.342,2.215-6.73,3.039s-4.545,1.718-6.468,2.679c0,0.275,0.102,0.412,0.306,0.412s0.277,0.172,0.219,0.515
			c1.398,1.031,2.505,1.855,3.321,2.474c0.815,0.618,1.588,1.133,2.316,1.545s1.515,0.773,2.359,1.082s2.024,0.669,3.54,1.081
			c1.515,0.412,2.694,0.739,3.54,0.979c0.845,0.24,1.617,0.446,2.316,0.618s1.412,0.309,2.141,0.412s1.763,0.224,3.104,0.36
			c0.523,0.618,0.976,1.356,1.354,2.215c0.379,0.859,0.626,1.718,0.743,2.576c0.116,0.858,0.146,1.683,0.087,2.473
			s-0.262,1.425-0.611,1.905c0.058,0.207,0.188,0.293,0.393,0.258c0.204-0.034,0.423-0.017,0.656,0.052
			c-0.35,0.275-0.642,0.618-0.874,1.03c-0.233,0.412-0.467,0.824-0.699,1.236c-0.233,0.412-0.496,0.772-0.787,1.082
			c-0.291,0.308-0.699,0.497-1.224,0.566c-1.807,0.824-4.079,0.875-6.817,0.154c-2.738-0.722-6.205-2.044-10.4-3.967
			c-2.098-0.961-3.803-1.803-5.113-2.523c-1.312-0.721-2.448-1.442-3.409-2.164c-0.961-0.721-1.835-1.494-2.622-2.318
			S568.841,55.464,567.735,54.296z M580.233,18.957c-0.641,1.1-1.354,2.096-2.142,2.988s-1.544,1.803-2.272,2.73
			s-1.384,1.958-1.966,3.091c-0.583,1.133-0.991,2.455-1.224,3.966c2.039-0.274,4.165-0.944,6.38-2.009
			c2.214-1.064,4.312-2.077,6.293-3.039c-0.233-2.129-0.859-3.847-1.879-5.151S581.34,19.369,580.233,18.957z"/>
		<path fill="#FFFFFF" d="M650.85,7.006c0.059,0.481,0.073,0.842,0.044,1.082s-0.059,0.464-0.088,0.67s-0.043,0.43-0.043,0.67
			s0.058,0.601,0.175,1.081c-1.225,2.336-2.638,3.933-4.239,4.791c-1.603,0.859-3.336,1.478-5.2,1.854
			c-1.865,0.378-3.773,0.772-5.726,1.185s-3.89,1.306-5.812,2.679c-0.758-0.343-1.443-0.343-2.055,0.001s-1.5,0.446-2.665,0.309
			c-0.35,0.412-0.787,0.704-1.312,0.876s-1.049,0.36-1.573,0.566c0.232,0.618,0.335,1.254,0.306,1.906s0.044,1.185,0.219,1.597
			c2.039,0.206,4.297,0.172,6.773-0.104c2.477-0.274,4.909-0.446,7.299-0.515c0.058,0.344,0.028,0.566-0.088,0.67
			c-0.117,0.104-0.146,0.292-0.087,0.566c0.407,0.344,0.814,0.772,1.223,1.288s0.815,1.014,1.224,1.494s0.83,0.876,1.268,1.185
			s0.947,0.429,1.53,0.36c0.232,0.55,0.393,1.15,0.48,1.803c0.087,0.652,0.014,1.322-0.219,2.009
			c-0.933,0.756-1.865,1.529-2.797,2.318c-0.933,0.79-1.908,1.494-2.928,2.112s-2.098,1.116-3.234,1.494s-2.403,0.532-3.802,0.463
			c-0.291,0-0.51,0-0.655,0c-0.146,0-0.336-0.103-0.568-0.309c-0.467,0.344-1.122,0.446-1.967,0.309
			c-0.845-0.137-1.5-0.034-1.966,0.31c-0.642-0.344-1.414-0.498-2.316-0.464c-0.903,0.035-1.704-0.085-2.403-0.36
			c-0.933,1.442-1.777,2.987-2.535,4.636s-1.428,3.4-2.01,5.255c1.98,0.344,3.627,0.48,4.938,0.412s2.549-0.188,3.715-0.36
			c1.165-0.172,2.359-0.344,3.583-0.516s2.768-0.223,4.633-0.154c1.165-0.756,2.549-1.254,4.151-1.494s3.074-0.635,4.414-1.185
			c0.466,0.206,0.874,0.566,1.224,1.082s0.685,0.996,1.005,1.442s0.656,0.841,1.006,1.185s0.786,0.48,1.311,0.412
			c0.232,0.275,0.393,0.602,0.48,0.979c0.088,0.378,0.16,0.738,0.219,1.082s0.16,0.636,0.306,0.876s0.394,0.326,0.743,0.257
			c-0.874,2.268-1.879,4.002-3.016,5.203c-1.137,1.202-2.433,2.112-3.89,2.73s-3.073,1.099-4.851,1.442s-3.743,0.756-5.899,1.236
			c-0.524,0.137-0.961,0.12-1.311-0.052s-0.758-0.258-1.224-0.258c-1.341,0.344-2.943,0.652-4.808,0.928
			c-1.865,0.274-3.759,0.377-5.682,0.31c-1.923-0.069-3.758-0.361-5.506-0.876c-1.748-0.516-3.176-1.426-4.282-2.73
			c-0.467-0.48-0.772-1.048-0.918-1.7c-0.146-0.652-0.539-1.15-1.18-1.494c-0.059-0.893-0.176-1.888-0.351-2.987
			c-0.175-1.099-0.35-2.249-0.524-3.451s-0.306-2.387-0.393-3.555c-0.088-1.168-0.044-2.232,0.131-3.194
			c0.175-1.029,0.539-1.957,1.093-2.781c0.553-0.824,0.742-1.717,0.568-2.679c0.291-0.068,0.465-0.258,0.523-0.566
			s0.292-0.43,0.7-0.361c0.35-1.236,0.728-2.403,1.136-3.503c0.408-1.099,0.83-2.163,1.268-3.193
			c0.437-1.03,0.873-2.078,1.311-3.143s0.859-2.249,1.268-3.555c-0.816-0.893-1.413-1.871-1.792-2.936s-0.655-2.13-0.83-3.194
			s-0.32-2.163-0.437-3.297c-0.117-1.133-0.321-2.283-0.612-3.451c0.582-1.03,1.296-1.872,2.142-2.524
			c0.845-0.652,1.763-1.185,2.753-1.597s2.068-0.755,3.234-1.03c1.165-0.274,2.389-0.584,3.671-0.928
			c2.33-0.893,4.413-1.579,6.249-2.06c1.835-0.48,3.642-0.876,5.419-1.186c1.777-0.309,3.627-0.601,5.55-0.876
			c1.923-0.274,4.108-0.687,6.556-1.236c0.523,0.619,1.019,0.928,1.485,0.928c0.232-0.618,0.51-0.807,0.83-0.566
			s0.452,0.052,0.394-0.567c0.582,1.168,1.325,2.147,2.229,2.937C648.738,5.787,649.743,6.457,650.85,7.006z"/>
		<path fill="#FFFFFF" d="M697.52,7.006c0.059,0.481,0.073,0.842,0.044,1.082s-0.059,0.464-0.088,0.67s-0.043,0.43-0.043,0.67
			s0.058,0.601,0.175,1.081c-1.225,2.336-2.638,3.933-4.239,4.791c-1.603,0.859-3.336,1.478-5.2,1.854
			c-1.865,0.378-3.773,0.772-5.726,1.185s-3.89,1.306-5.812,2.679c-0.758-0.343-1.443-0.343-2.055,0.001s-1.5,0.446-2.665,0.309
			c-0.35,0.412-0.787,0.704-1.312,0.876s-1.049,0.36-1.573,0.566c0.232,0.618,0.335,1.254,0.306,1.906s0.044,1.185,0.219,1.597
			c2.039,0.206,4.297,0.172,6.773-0.104c2.477-0.274,4.909-0.446,7.299-0.515c0.058,0.344,0.028,0.566-0.088,0.67
			c-0.117,0.104-0.146,0.292-0.087,0.566c0.407,0.344,0.814,0.772,1.223,1.288s0.815,1.014,1.224,1.494s0.83,0.876,1.268,1.185
			s0.947,0.429,1.53,0.36c0.232,0.55,0.393,1.15,0.48,1.803c0.087,0.652,0.014,1.322-0.219,2.009
			c-0.933,0.756-1.865,1.529-2.797,2.318c-0.933,0.79-1.908,1.494-2.928,2.112s-2.098,1.116-3.234,1.494s-2.403,0.532-3.802,0.463
			c-0.291,0-0.51,0-0.655,0c-0.146,0-0.336-0.103-0.568-0.309c-0.467,0.344-1.122,0.446-1.967,0.309
			c-0.845-0.137-1.5-0.034-1.966,0.31c-0.642-0.344-1.414-0.498-2.316-0.464c-0.903,0.035-1.704-0.085-2.403-0.36
			c-0.933,1.442-1.777,2.987-2.535,4.636s-1.428,3.4-2.01,5.255c1.98,0.344,3.627,0.48,4.938,0.412s2.549-0.188,3.715-0.36
			c1.165-0.172,2.359-0.344,3.583-0.516s2.768-0.223,4.633-0.154c1.165-0.756,2.549-1.254,4.151-1.494s3.074-0.635,4.414-1.185
			c0.466,0.206,0.874,0.566,1.224,1.082s0.685,0.996,1.005,1.442s0.656,0.841,1.006,1.185s0.786,0.48,1.311,0.412
			c0.232,0.275,0.393,0.602,0.48,0.979c0.088,0.378,0.16,0.738,0.219,1.082s0.16,0.636,0.306,0.876s0.394,0.326,0.743,0.257
			c-0.874,2.268-1.879,4.002-3.016,5.203c-1.137,1.202-2.433,2.112-3.89,2.73s-3.073,1.099-4.851,1.442s-3.743,0.756-5.899,1.236
			c-0.524,0.137-0.961,0.12-1.311-0.052s-0.758-0.258-1.224-0.258c-1.341,0.344-2.943,0.652-4.808,0.928
			c-1.865,0.274-3.759,0.377-5.682,0.31c-1.923-0.069-3.758-0.361-5.506-0.876c-1.748-0.516-3.176-1.426-4.282-2.73
			c-0.467-0.48-0.772-1.048-0.918-1.7c-0.146-0.652-0.539-1.15-1.18-1.494c-0.059-0.893-0.176-1.888-0.351-2.987
			c-0.175-1.099-0.35-2.249-0.524-3.451s-0.306-2.387-0.393-3.555c-0.088-1.168-0.044-2.232,0.131-3.194
			c0.175-1.029,0.539-1.957,1.093-2.781c0.553-0.824,0.742-1.717,0.568-2.679c0.291-0.068,0.465-0.258,0.523-0.566
			s0.292-0.43,0.7-0.361c0.35-1.236,0.728-2.403,1.136-3.503c0.408-1.099,0.83-2.163,1.268-3.193
			c0.437-1.03,0.873-2.078,1.311-3.143s0.859-2.249,1.268-3.555c-0.816-0.893-1.413-1.871-1.792-2.936s-0.655-2.13-0.83-3.194
			s-0.32-2.163-0.437-3.297c-0.117-1.133-0.321-2.283-0.612-3.451c0.582-1.03,1.296-1.872,2.142-2.524
			c0.845-0.652,1.763-1.185,2.753-1.597s2.068-0.755,3.234-1.03c1.165-0.274,2.389-0.584,3.671-0.928
			c2.33-0.893,4.413-1.579,6.249-2.06c1.835-0.48,3.642-0.876,5.419-1.186c1.777-0.309,3.627-0.601,5.55-0.876
			c1.923-0.274,4.108-0.687,6.556-1.236c0.523,0.619,1.019,0.928,1.485,0.928c0.232-0.618,0.51-0.807,0.83-0.566
			s0.452,0.052,0.394-0.567c0.582,1.168,1.325,2.147,2.229,2.937C695.408,5.787,696.413,6.457,697.52,7.006z"/>
	</g>
	<g>
		<g>
			<line fill="none" x1="322.311" y1="83.898" x2="704.243" y2="91.104"/>
			<g>
				<path fill="#FFFFFF" d="M323.268,81.756c-1.406,0.239,0.736,1.038-0.924,0.436C322.541,81.723,322.82,81.373,323.268,81.756z"/>
				<path fill="#FFFFFF" d="M699.615,89.52c-4.57,2.966-10.456-0.228-15.436,1.624c-0.583,0.117,0.18-1.669-1.133-1.292
					c-4.838,2.28-12.361,0.725-18.163-1.213l0.362-0.466c-1.104-0.361-2.492,1.176-3.666,0.935
					c-0.002-0.313,0.387-0.438,0.122-0.873c-0.314,0.939-2.138,0.397-2.651,1.091c-0.458-0.376-0.398-1.125-0.992-1.55l-0.694,1.061
					c-1.923,2.522-4.55-0.262-7.133,1.011c0.128-0.248,0.386-0.438,0.188-0.685c-4.136,1.477-9.268,1.091-13.87,1.574
					c0.19-0.375,0.371-1.063,0.111-1.498c-0.248,1.128-1.671,1.386-2.906,1.586c-0.532-1.175-2.13,1.022-3.562,0.354l0.129-0.256
					c-1.089,1.198-1.569-0.732-2.462,0.712l-0.66-0.927c-0.498,1.632-1.527-0.881-2.425-0.062l0.022,0.337
					c-0.838,0.382-1.256-0.45-2.032-0.188l-0.069-0.188c-1.813,0.396-2.847-0.538-2.826,0.743c-0.614-1.039,1.76-0.436,0.793-1.946
					c-5.963,1.208-12.083,0.834-18.062,0.746c-0.668-0.528-1.098-0.693-1.241-1.18c-0.602,0.247-2.254,0.192-2.809,0.837
					c0.201-0.023-0.374-0.663-0.689-0.731c-1.077-0.505-1.215,1.384-2.397,0.787c0.481-0.331,0.651-0.742,0.5-1.222
					c-1.036,0.98-2.396,0.795-3.605,1.097c0.19-0.212,0.483-0.335,0.446-0.738c-1.34,1.108-2.398-0.284-3.564,0.409l0.444-0.73
					c-1.842-0.934-0.578,1.536-2.174,0.975c0.39-0.227,0.26-0.519,0.334-0.818c-1.523,1.315-3.94,0.824-5.443,1.253
					c0.091-0.101,0.07-0.304,0.07-0.304c-1.631,0.137-3.327-0.313-5.129,0.239c-0.646-0.341,0.247-1.8-1.482-1.56
					c0.035,1.485-2.938,0.554-1.954,2.253c-1.468-0.271-3.788-0.873-4.778-0.388c0.672-0.55-0.683-1.826,0.544-1.927l-0.909-0.92
					c0.149-0.603,0.948,0.225,0.669-0.546c-0.615,0.051-2.413,0.603-2.957,0.351c-1.154,0.889-2.229,2.568-4.073,2.72
					c0.876-0.562-0.46-1.646,0.131-1.888l-2.62,2.794c-0.612,0.06-0.109-1.174-1.002-0.804c0.037,0.396-0.354,0.63-0.628,0.945
					c-0.229-0.177-2.554,0.319-2.792-1.146c-0.261-0.576,1.003-0.286,0.335-0.822c-1.13-0.006-1.189,0.493-2.321,0.495l-0.019-0.195
					c-0.741-0.233-2.211,0.579-1.416,1.403c0.519,0.057-0.181-0.883,0.581-0.442c-0.542,0.838-1.86,1.051-2.991,1.045
					c0.39-0.227,0.351-0.618,0.513-1.029c-1.541,1.12-3.158,1.452-4.864,1.901c-0.04,0.694,0.657-1.254,0.9-0.882
					c-2.157-1.006-4.519,1.282-6.301-0.162c0.299-0.115,0.14,0.991,0.123,0.796c-1.046-0.106-0.979-1.113-1.668-0.755
					c-0.058-0.591-0.862,0.176-1.568,0.342c-0.372,0.419-0.178-0.293,0.435-0.344c-0.988,0.481-4.924,1.313-7.17,0.412
					c0.037,0.392-1.416,1.407-1.936,1.354l0.221-0.91c-0.465-0.556-1.744,0.045-1.816-0.737c-1.132,1.088,4.297-0.865,2.777-0.038
					c-0.375-0.769-2.121,1.418-1.774,0.178c-1.045,0.016-2.077,1.023-3.059,0.149c0.286,0.154,0.871-1.253,0.027-1.203
					c-1.49,0.137-0.431,0.43-1.643,0.712l-0.763,0.36c-0.065,0.89-1.326-0.146-0.792,0.86c-0.169-0.738-2.167,0.412-1.987-1.062
					l0.229-1.159c-0.644,0.073-1.075,1.206-1.589,1.708c-0.083-0.106-0.247-0.345-0.211-0.531c-0.138,1.779-1.53-0.178-2.32,1.183
					c-1.335-0.643-3.421-0.119-4.035-1.24c-1.046,0.52-2.002,1.143-3.175,0.737c0.238-0.163,0.561-0.208,0.635-0.59
					c-0.731-0.537-0.923-0.072-1.606,0.204c0.157-0.263-1.463-1.07-2.275-1.715c-1.038,0.512-0.702,1.479-0.817,2.063
					c-0.907-1.775-2.927,1.077-4.075-0.538c0.362-0.235,1.52-0.835,0.671-1.293c-0.907-1.771-1.921,1.262-3.42,0.389l0.344,1.464
					c-0.659-0.915-2.248,0.806-2.065-0.676c-0.518,0.514-1.78-0.518-1.638,0.907c-2.468-1.25-6.071,0.612-7.553-1.967
					c-0.362,0.231-1.249-0.027-1.08,0.706c0.578,0.804,0.84-0.551,1.051-0.008c-0.321,0.037-0.398,0.427-0.437,0.621
					c-0.768-0.339-1.375-0.452-0.621-1.621c-1.706-0.912-1.822,2.384-4.006,1.788c0.111-0.588-0.051-0.814-0.694-0.732l-1.235,0.984
					c-1.413-0.261-0.781-1.354-0.797-2.352c-0.761,0.158-1.686,0.094-2.045,0.829l-0.896-1.267c0.655,0.915-0.635,0.589-0.995,0.826
					l0.36-0.236c-0.13-0.428-1.013-0.183-1.459-0.066c0.096,0.619,0.984,0.886,1.469,1.075c-0.395,0.43-0.996,0.317-1.52,0.823
					c0.189-0.974-1.222-0.719-1.82-0.832c-0.687-0.224-0.797,0.86-0.997,0.825c-0.009-0.508-1.125-0.107-0.573-0.808
					c0.238-0.159,0.528,0.502,0.927,0.064c-0.448-0.388-0.378-1.27-1.337-0.643c-0.72,0.471,0.146,1.933-1.19,1.29
					c0.358-0.235,0.431-0.625,0.713-0.971l-1.255-0.532l-0.072,0.89c-0.166-0.229-0.047-0.306-0.122-0.424
					c-0.395,0.93-1.937,0.252-2.242,1.302c-0.64,0.081-1.333-0.643-1.94-0.756l0.119-0.076c-0.735-0.537-1.73-0.212-2.367,0.378
					l0.036-0.195c-0.405-0.077-1.368,0.045-1.89,0.559c-1.013-0.691-0.28-3.369-1.438-2.27c-1.042,0.011-1.663,1.602-1.256,2.18
					c-1.86-0.637-4.017,0.776-5.727-0.64c-0.276,0.354-0.11,0.584-0.671,0.784c-2.743-0.403-5.827,0.945-7.983-0.846
					c0.803-0.359,0.069-0.89,0.063-1.397c-0.673,0.784-0.776-0.843-1.037,0.52c0.05,0.806-0.023,1.195,0.744,1.534
					c-1.648,0.402-4.145,0.355-5.04-0.412c0.448,0.38,0.09,0.619-0.271,0.854c0.142-1.282-1.065-1.497-1.989-1.061l-0.143,0.778
					l-0.582-0.815c-0.356,0.243-0.419,1.633-1.313,0.865c-0.043-0.305-0.09-0.614-0.252-0.841c-0.959,0.623-2.315,1.684-3.33,1
					l-0.819-1.156c-0.441,0.117-1.195,0.79-0.428,1.133c-1.742-0.721-2.869-0.827-3.407-1.826
					c-3.066,2.349-7.455,2.363-10.965,2.126l0.117-0.584c-0.935-0.564-0.511,1.014-1.161,0.595c0.314-0.553-0.696-1.228,0.058-1.897
					c-1.339-0.643-1.759,0.982-2.642,1.231c-0.148,0.768,0.716-0.479,0.527,0.495c-0.156,0.271-1.857-0.637-2.088,0.523
					c-0.331-0.464-0.051-1.314,0.141-1.783l-0.835,0.551c-0.983-1.378,2.345-2.386,1.316-4.082l-0.763,0.169
					c-0.704-1.232,2.036-1.337,0.135-1.791c-0.839,0.559-1.578,2.232-0.851,2.762c-1.729,0.288-0.851,2.758-2.702,2.626
					c-0.493-0.693,1.487-0.137,1.148-1.1c-0.855-0.954-1.761,0.49-2.532,0.147c0.854,0.453,0.104,1.615-0.459,1.819
					c-0.932-0.568,0.634-1.09-0.7-1.236c-0.231,0.668-1.47,1.148-0.416,1.638c-0.513,1.514-1.382-0.448-2.131,0.718
					c-0.414-1.079,1.422-2.45-0.036-3.014c0.214,1.036-1.836,1.368-1.089,2.914c-0.569-0.308-0.615-1.121-0.185-1.746
					c-0.809-0.652-2.028,1.845-2.26-0.207l-0.302,1.05c-0.252-0.349-0.614-0.613-1.023-1.191c-0.723-0.033-2.358,1.385-2.264-0.207
					c-0.234,0.159-1.887,0.058-1.27,1.172c1.016,0.69,1.197-0.782,1.742,0.716c-0.704-1.228-1.486,0.133-2.086,0.527l-0.086-0.619
					c-0.358,0.236-1.17,0.084-1.404,0.747c0.279-0.346,0.145-0.771-0.133-0.924l-0.389,0.93c-1.445,0.442-0.309-1.654-1.711-1.407
					l1.076-0.706c-0.236,0.151-0.695-0.736-1.371-0.456c-0.275,0.851-0.783,1.868-1.019,2.528c-0.795,0.36-0.335-0.972-1.128-0.107
					l1.035-1.012c0.16-0.278-0.657-1.427-1.71-1.423c-0.678,0.284-1.745,1.498-0.693,1.987c-0.528,0.005-1.258-0.532-0.828-1.149
					c-1.202,0.274,0.141,0.925-0.9,1.437c-0.412-0.578-1.712-1.415-2.489-2.258l1.104-1.413l-0.715-0.025
					c0.948-1.131-0.455-0.884,0.092-2.084c-0.486-0.197-1.086,0.202-1.565,0.51c1.395,1.964-1.652,2.618-1.27,4.391
					c-1.971,0.447-1.146-4.32-3.243-1.593c0.327,0.467-0.661,1.792,0.583,1.304c-1.215-0.214-0.862,1.758-2.286,1
					c1.078-0.706-1.109-1.811,0.448-2.836c-0.112,0.584,0.851,0.462,1.089,0.302c-0.489-0.688,0.137-1.779-1.11-1.802
					c-0.765,0.154-1.809,0.169-1.674,1.094c0.012,1.012,1.164-0.087,0.657,0.926c-1.523,0.323-1.749-1.22-2.41,0.564
					c0.961-0.127,1.181,0.921,1.15,1.615l-1.121,0.401l0.228-0.668c-1.778-0.518-0.551,1.209-2.278,0.996l-0.787-1.343
					c0.434-1.137,2.508,0.555,2.235-1.313c-1.124-0.096-1.515,0.843-2.566,0.342c0.238-0.155,0.563-0.196,0.799-0.355
					c-0.403-0.07-0.756-2.546-2.388-1.131c-0.839,0.546-0.232,0.66-0.266,1.354c-1.811,0.178-2.365,0.878-3.53,0.965
					c0.265-1.354-2.055-0.171-0.743-1.537c0.576,0.808,3.191,0.779,3.855-0.506c-0.627-1.625,1.416,0.254,1.832-1.372
					c-1.447-0.066-1.346-1.651-1.56-2.694c-0.401-0.082-0.799,0.353-1.042,0.508c-0.189,0.977,0.337,0.972,0.349,1.98
					c-1.611-0.296-3.179,0.221-4.089,1.157c-0.531-0.495-0.342-1.468,0.299-1.549c-1.928,0.253-3.981,0.081-5.803-0.25
					c1.151,1.62-2.044,0.336-1.263,1.68c0.972,0.377,1.792,1.53,1.238,2.235c-0.609-0.113,0.034-0.699-0.216-1.044
					c-0.796,0.856-1.184-1.421-1.976-0.061c1.766-0.482,0.378-1.938,0.725-3.182c-1.281,0.679,0.071-0.89-1.184-0.913
					c-1.274,0.671-2.836,1.189-4.244,1.432c-1.74-1.217-4.465-0.104-6.04-0.087c-0.813-0.648-0.227-2.051-1.116-2.314
					c-1.05,0.008,0.749,1.542-0.792,0.864l0.155-0.278c-0.477,0.319-2.831-1.015-3.328,1.008l0.508-1.522
					c-0.288-0.146-0.563,0.2-0.805,0.36c-0.003-0.5-0.332-0.959,0.146-1.279c-0.939-1.073-2.016,0.13-3.058,0.153l0.653,0.918
					c-1.796,0.677-2.974-0.244-4.706,0.041l0.07-0.886l-1.038,0.512c0.268-0.854-0.664-1.427-1.22-0.718l2.709-2.121
					c0.731,0.537-0.831,1.055-0.382,1.938c0.381,0.773,1.982,0.561,2.256-0.29c-0.609-0.109-0.641,0.085-1.123,0.396
					c-0.178-1.238,0.75-1.173,1.224-1.989c-0.322,0.045-0.77-0.339-0.846,0.05c0.641-0.589,1.276-0.671,2.325-0.683
					c-0.718,0.471,0.371,0.773,0.097,1.119c0.104-1.084,1.111-1.401,2.401-1.072c0.9,1.275,2.446-0.762,3.94-0.387
					c-0.63,1.09-1.425,1.958-2.345,2.386c0.932,0.568,1.048-0.012,1.982,0.561c0.473-0.812,0.821-2.063,2.059-2.54l0.052,0.813
					c1.121-0.393,1.144-1.596,2.557-1.342c2.421,0.444,4.921,0.491,6.773,0.628l0.054,0.81c1.064-1.715,3.448-0.576,4.852-1.319
					c2.347,0.826,5.144-0.677,6.328,0.745c4.181-0.546,7.837-1.087,12.149-0.708l-0.749,1.166c0.79-0.853,0.491,0.689,1.253,0.528
					c-0.855-0.958,1.075-1.203,1.623-1.915c1.906,0.954,4.394,0,6.114-0.795l0.051,0.814c1.751-1.491,3.782-0.116,5.925,0.174
					c0.239,0.34,0.613,1.109,1.254,1.032c1.188-1.291,1.796-1.185,3.52-1.973c1.246,0.023,3.265,0.386,4.522,0.921
					c4.726-1.755,9.494-0.485,14.391-1.502l0.333,0.959c4.767-1.949,10.545,0.012,14.6-0.959l-0.42,1.621
					c1.255,0.528,2.892-0.371,2.59-1.533c1.26,0.524,3.181-0.729,3.962,0.625c1.29,0.325,1.601-0.724,2.683-0.922
					c2.584,0.666,3.549,0.544,6.002,0.285l-0.605-0.113c-0.275,0.354-0.313,1.045,0.295,1.162c0.922-0.436,3.351,0.5,2.478-1.461
					c2.59,1.174,6.109-0.799,8.623,0.764c-0.205-0.535,0.438-0.625,0.713-0.979c2.293,0.02,4.684,1.151,6.528,0.28
					c0.358,0.272-0.598,0.895,0.335,0.967c0.556-0.193,0.023-0.695,0.711-0.979c3.733-0.922,7.501,1.165,10.881,0.971
					c6.021-0.914,12.274-0.276,18.028-0.34l-0.072,0.389c1.954-1.456,4.49,1.612,6.069-0.604c0.448,0.379,1.735,0.208,1.384,0.956
					c1.553-1.025,4.274,1.073,6.517-0.225c-0.202-0.039-0.321,0.037-0.56,0.2c2.223,0.906,4.222-0.236,6.57,0.589
					c-0.243,0.163-0.682,0.276-0.76,0.665c0.899,0.767,2.195-1.607,2.659,0.285c0.524-0.006,0.392-0.938,0.07-0.889
					c5.16,0.832,10.706-0.267,16.1-0.595c3.837,1.198,0.176,3.176,3.246,1.827c0.243,0.368,0.194-0.715,0.228-0.324
					c1.188-0.505,1.796,2.136,2.631,1.167c-0.314-1.163,0.557-0.638,0.595-1.34c2.346,0.794,2.799,1.846,4.678,1.002l-0.152,0.606
					c2.216-1.677,4.729-0.708,6.608-2.657c12.044-0.132,23.604-1.016,35.346-1.025c11.594,0.598,22.971-0.078,34.732,1.198
					c2.729,1.649,2.938,1.61,5.981,1.02c-0.128,0.255-0.318,0.314-0.12,0.56c0.175-1.309,2.137-0.084,2.449-1.329
					c4.351,0.325,8.37,0.041,12.853,0.118c-0.712,0.127-1.087,1.19-0.243,1.121l0.896-0.819l0.137,0.37
					c0.581-0.185,1.221-0.821,0.634-1.254c11.279-0.92,22.305,1.921,33.338,1.805c2.607,0.596,6.343,0.167,9.195-0.049
					c8.398,1.909,15.973,3.462,24.563,2.401C704.349,85.437,703.167,88.806,699.615,89.52z"/>
				<path fill="#FFFFFF" d="M324.956,81.655c0.288,0.662,1.262,1.04,0.464,1.9C325.333,82.936,324.843,82.239,324.956,81.655z"/>
				<path fill="#FFFFFF" d="M351.012,88.897c0.038-0.194,0.369,0.273,0.45,0.38c-0.324,0.045-0.637,0.59-0.888,0.245
					C350.904,89.481,350.859,89.168,351.012,88.897z"/>
				<path fill="#FFFFFF" d="M357.7,89.415c-0.112,0.58-1.553,1.018-2.399,1.072L357.7,89.415z"/>
				<path fill="#FFFFFF" d="M363.893,91.938c0.529,0.502,0.375,0.769-0.349,0.739C363.497,92.368,363.739,92.217,363.893,91.938z"/>
				<path fill="#FFFFFF" d="M364.361,90.618c0.518-0.006,0.77,0.343,1.015,0.684C365.367,90.798,364.169,91.592,364.361,90.618z"/>
				<path fill="#FFFFFF" d="M377.872,92.569c0.326-0.041,1.04-0.512,1.33,0.142C378.871,92.252,377.604,93.42,377.872,92.569z"/>
				<path fill="#FFFFFF" d="M384.181,91.805c0.202,0.043,0.283,0.15,0.521-0.005c0.369,0.272-0.033,0.69-0.349,0.739L384.181,91.805
					z"/>
				<polygon fill="#FFFFFF" points="498.792,91.623 498.106,91.899 498.216,91.323 				"/>
				<path fill="#FFFFFF" d="M548.995,92.539c0.686-0.354,0.461,0.556,0.573,0.644C548.954,93.233,549.809,92.468,548.995,92.539z"/>
				<polygon fill="#FFFFFF" points="576.119,90.136 575.912,90.147 576.003,88.954 				"/>
			</g>
		</g>
	</g>
</g>
<g>
	<g>
		<path fill="#FFFFFF" d="M54.391,63.976H42.016l-6.337-25.332c-0.094-0.352-0.206-0.843-0.335-1.476
			c-0.129-0.632-0.275-1.346-0.439-2.143s-0.329-1.628-0.493-2.495c-0.164-0.866-0.316-1.709-0.457-2.529s-0.265-1.575-0.37-2.267
			c-0.105-0.69-0.182-1.247-0.229-1.669c-0.047,0.422-0.124,0.979-0.229,1.669c-0.105,0.691-0.229,1.44-0.369,2.249
			s-0.288,1.646-0.44,2.512c-0.152,0.867-0.305,1.698-0.457,2.495s-0.3,1.522-0.44,2.178c-0.141,0.656-0.258,1.171-0.352,1.546
			l-6.267,25.262h-12.41L0,12.601h10.723l5.847,28.039c0.07,0.375,0.17,0.92,0.299,1.635s0.276,1.517,0.44,2.406
			c0.164,0.891,0.335,1.827,0.511,2.811c0.176,0.984,0.347,1.944,0.511,2.882s0.317,1.81,0.458,2.617
			c0.141,0.809,0.247,1.47,0.317,1.985c0.07-0.516,0.17-1.171,0.299-1.968c0.129-0.796,0.265-1.645,0.405-2.547
			s0.299-1.833,0.475-2.794c0.176-0.96,0.335-1.855,0.476-2.688s0.275-1.569,0.404-2.214s0.229-1.106,0.3-1.388l7.146-28.777h9.563
			l7.146,28.777c0.07,0.281,0.17,0.743,0.299,1.388s0.271,1.382,0.423,2.214s0.311,1.728,0.475,2.688
			c0.164,0.961,0.323,1.892,0.476,2.794s0.293,1.751,0.422,2.547c0.129,0.797,0.229,1.452,0.3,1.968
			c0.07-0.516,0.17-1.177,0.299-1.985c0.129-0.808,0.276-1.68,0.44-2.617s0.335-1.897,0.511-2.882
			c0.176-0.983,0.347-1.92,0.511-2.811c0.164-0.89,0.312-1.691,0.44-2.406s0.229-1.26,0.3-1.635l5.847-28.039h10.723L54.391,63.976z
			"/>
		<path fill="#FFFFFF" d="M102.805,63.976H73.242V12.601h29.563v9.07H84.141v11.117h17.363v9.07H84.141v13.047h18.664V63.976z"/>
		<path fill="#FFFFFF" d="M113.566,12.601h15.045c3.234,0,6.069,0.229,8.507,0.687s4.476,1.196,6.116,2.217s2.877,2.357,3.709,4.011
			c0.832,1.654,1.248,3.688,1.248,6.104c0,1.455-0.176,2.815-0.527,4.082s-0.867,2.381-1.547,3.342
			c-0.68,0.962-1.506,1.766-2.479,2.41c-0.973,0.646-2.091,1.073-3.356,1.284v0.351c1.29,0.281,2.492,0.686,3.607,1.212
			c1.114,0.526,2.088,1.252,2.921,2.176c0.833,0.925,1.49,2.089,1.972,3.493c0.48,1.404,0.722,3.112,0.722,5.124
			c0,2.34-0.411,4.429-1.231,6.266s-1.999,3.393-3.534,4.668s-3.399,2.253-5.591,2.932s-4.671,1.018-7.437,1.018h-18.145V12.601z
			 M124.465,32.976h5.643c1.355,0,2.488-0.121,3.4-0.365c0.911-0.243,1.647-0.608,2.208-1.096c0.561-0.486,0.963-1.096,1.209-1.826
			c0.245-0.73,0.368-1.582,0.368-2.557c0-1.947-0.614-3.345-1.841-4.191c-1.227-0.846-3.172-1.27-5.835-1.27h-5.152V32.976z
			 M124.465,41.625v13.281h6.45c1.441,0,2.652-0.162,3.633-0.487s1.771-0.79,2.374-1.395s1.034-1.337,1.294-2.196
			s0.39-1.813,0.39-2.858c0-0.953-0.13-1.818-0.39-2.598c-0.26-0.778-0.703-1.446-1.329-2.004c-0.627-0.558-1.448-0.987-2.464-1.29
			c-1.016-0.302-2.279-0.453-3.791-0.453H124.465z"/>
		<path fill="#FFFFFF" d="M187.922,49.695c0,2.296-0.394,4.363-1.179,6.202c-0.786,1.839-1.936,3.408-3.448,4.708
			c-1.513,1.301-3.365,2.302-5.559,3.005c-2.193,0.702-4.709,1.054-7.547,1.054c-2.486,0-4.884-0.258-7.194-0.773
			s-4.451-1.289-6.421-2.32V51.445c1.126,0.53,2.264,1.043,3.414,1.538c1.149,0.496,2.316,0.939,3.502,1.331
			c1.185,0.393,2.369,0.703,3.555,0.934c1.185,0.23,2.363,0.346,3.537,0.346c1.196,0,2.223-0.133,3.079-0.398
			s1.549-0.635,2.077-1.108c0.527-0.474,0.915-1.04,1.161-1.698s0.37-1.381,0.37-2.166c0-0.96-0.206-1.809-0.616-2.547
			s-0.985-1.429-1.725-2.073s-1.631-1.271-2.675-1.88c-1.045-0.609-2.212-1.254-3.502-1.934c-1.08-0.562-2.288-1.24-3.626-2.037
			s-2.599-1.786-3.783-2.97c-1.186-1.183-2.177-2.611-2.975-4.286s-1.196-3.684-1.196-6.027c0-2.295,0.381-4.351,1.144-6.166
			c0.762-1.815,1.847-3.35,3.254-4.604c1.407-1.253,3.113-2.207,5.119-2.863s4.252-0.984,6.738-0.984
			c1.242,0,2.456,0.082,3.641,0.246s2.357,0.398,3.519,0.703s2.328,0.68,3.501,1.125s2.381,0.961,3.624,1.547l-3.52,8.473
			c-1.057-0.492-2.042-0.926-2.957-1.301s-1.807-0.691-2.675-0.949c-0.869-0.258-1.72-0.451-2.553-0.58s-1.672-0.193-2.516-0.193
			c-1.83,0-3.232,0.486-4.206,1.457c-0.975,0.972-1.461,2.265-1.461,3.879c0,0.867,0.146,1.634,0.439,2.302s0.763,1.294,1.408,1.88
			c0.645,0.586,1.478,1.183,2.499,1.792c1.021,0.609,2.259,1.3,3.714,2.073c1.76,0.938,3.378,1.892,4.856,2.864
			s2.751,2.05,3.819,3.232c1.067,1.184,1.895,2.524,2.481,4.023C187.628,45.923,187.922,47.68,187.922,49.695z"/>
		<path fill="#FFFFFF" d="M216.738,63.976h-23.414v-6.188l6.258-2.883V21.671l-6.258-2.883v-6.188h23.414v6.188l-6.258,2.883v33.234
			l6.258,2.883V63.976z"/>
		<path fill="#FFFFFF" d="M244.313,63.976h-10.898V21.671h-12.875v-9.07h36.625v9.07h-12.852V63.976z"/>
		<path fill="#FFFFFF" d="M294.617,63.976h-29.563V12.601h29.563v9.07h-18.664v11.117h17.363v9.07h-17.363v13.047h18.664V63.976z"/>
	</g>
</g>
<circle fill="#333332" cx="736.277" cy="59.501" r="10"/>
</svg>
